<svg width="125" height="125" viewBox="0 0 125 125" fill="none" xmlns="http://www.w3.org/2000/svg">
<path d="M62.5001 20.833C54.2592 20.833 46.2034 23.2767 39.3513 27.8551C32.4993 32.4335 27.1587 38.9409 24.0051 46.5545C20.8514 54.1681 20.0263 62.5459 21.634 70.6284C23.2417 78.711 27.2101 86.1353 33.0373 91.9624C38.8645 97.7896 46.2888 101.758 54.3713 103.366C62.4538 104.973 70.8316 104.148 78.4452 100.995C86.0588 97.841 92.5662 92.5005 97.1446 85.6484C101.723 78.7964 104.167 70.7406 104.167 62.4997C104.167 51.449 99.7769 40.8509 91.9629 33.0369C84.1488 25.2229 73.5508 20.833 62.5001 20.833ZM57.3265 41.6663C57.3265 40.285 57.8752 38.9602 58.8519 37.9835C59.8287 37.0067 61.1535 36.458 62.5348 36.458C63.9161 36.458 65.2409 37.0067 66.2176 37.9835C67.1944 38.9602 67.7431 40.285 67.7431 41.6663V65.5899C67.7431 66.2739 67.6084 66.9512 67.3467 67.5831C67.0849 68.215 66.7013 68.7892 66.2176 69.2728C65.734 69.7564 65.1598 70.1401 64.5279 70.4018C63.896 70.6636 63.2188 70.7983 62.5348 70.7983C61.8508 70.7983 61.1735 70.6636 60.5416 70.4018C59.9097 70.1401 59.3356 69.7564 58.8519 69.2728C58.3683 68.7892 57.9847 68.215 57.7229 67.5831C57.4612 66.9512 57.3265 66.2739 57.3265 65.5899V41.6663ZM62.5001 88.5413C61.3189 88.5413 60.1642 88.1911 59.1821 87.5348C58.1999 86.8786 57.4345 85.9459 56.9824 84.8546C56.5304 83.7633 56.4122 82.5625 56.6426 81.404C56.873 80.2455 57.4418 79.1813 58.2771 78.3461C59.1123 77.5109 60.1764 76.9421 61.3349 76.7116C62.4934 76.4812 63.6943 76.5995 64.7855 77.0515C65.8768 77.5035 66.8096 78.269 67.4658 79.2511C68.122 80.2332 68.4723 81.3879 68.4723 82.5691C68.4723 84.153 67.8431 85.6721 66.7231 86.7921C65.6031 87.9121 64.084 88.5413 62.5001 88.5413Z" fill="#C10F03"/>
</svg>
