<svg width="50" height="51" viewBox="0 0 50 51" fill="none" xmlns="http://www.w3.org/2000/svg">
<path fill-rule="evenodd" clip-rule="evenodd" d="M15.625 36.4374C15.625 36.023 15.7896 35.6255 16.0827 35.3325C16.3757 35.0395 16.7731 34.8749 17.1875 34.8749H45.3125C45.7269 34.8749 46.1244 35.0395 46.4174 35.3325C46.7104 35.6255 46.875 36.023 46.875 36.4374C46.875 36.8518 46.7104 37.2492 46.4174 37.5422C46.1244 37.8352 45.7269 37.9999 45.3125 37.9999H17.1875C16.7731 37.9999 16.3757 37.8352 16.0827 37.5422C15.7896 37.2492 15.625 36.8518 15.625 36.4374ZM15.625 23.9374C15.625 23.523 15.7896 23.1255 16.0827 22.8325C16.3757 22.5395 16.7731 22.3749 17.1875 22.3749H45.3125C45.7269 22.3749 46.1244 22.5395 46.4174 22.8325C46.7104 23.1255 46.875 23.523 46.875 23.9374C46.875 24.3518 46.7104 24.7492 46.4174 25.0422C46.1244 25.3352 45.7269 25.4999 45.3125 25.4999H17.1875C16.7731 25.4999 16.3757 25.3352 16.0827 25.0422C15.7896 24.7492 15.625 24.3518 15.625 23.9374ZM15.625 11.4374C15.625 11.023 15.7896 10.6255 16.0827 10.3325C16.3757 10.0395 16.7731 9.87486 17.1875 9.87486H45.3125C45.7269 9.87486 46.1244 10.0395 46.4174 10.3325C46.7104 10.6255 46.875 11.023 46.875 11.4374C46.875 11.8518 46.7104 12.2492 46.4174 12.5422C46.1244 12.8352 45.7269 12.9999 45.3125 12.9999H17.1875C16.7731 12.9999 16.3757 12.8352 16.0827 12.5422C15.7896 12.2492 15.625 11.8518 15.625 11.4374ZM12.0438 7.20611C12.1893 7.35126 12.3047 7.52368 12.3835 7.71351C12.4623 7.90334 12.5028 8.10684 12.5028 8.31236C12.5028 8.51789 12.4623 8.72139 12.3835 8.91122C12.3047 9.10105 12.1893 9.27347 12.0438 9.41861L7.35627 14.1061C7.21113 14.2516 7.0387 14.3671 6.84888 14.4458C6.65905 14.5246 6.45554 14.5652 6.25002 14.5652C6.0445 14.5652 5.84099 14.5246 5.65117 14.4458C5.46134 14.3671 5.28891 14.2516 5.14377 14.1061L3.58127 12.5436C3.436 12.3983 3.32076 12.2259 3.24214 12.0361C3.16351 11.8463 3.12305 11.6428 3.12305 11.4374C3.12305 11.2319 3.16351 11.0285 3.24214 10.8387C3.32076 10.6489 3.436 10.4764 3.58127 10.3311C3.72655 10.1858 3.89901 10.0706 4.08882 9.99198C4.27863 9.91336 4.48207 9.87289 4.68752 9.87289C4.89297 9.87289 5.09641 9.91336 5.28622 9.99198C5.47603 10.0706 5.6485 10.1858 5.79377 10.3311L6.25002 10.7905L9.83127 7.20611C9.97641 7.0606 10.1488 6.94516 10.3387 6.86639C10.5285 6.78762 10.732 6.74707 10.9375 6.74707C11.143 6.74707 11.3465 6.78762 11.5364 6.86639C11.7262 6.94516 11.8986 7.0606 12.0438 7.20611ZM12.0438 19.7061C12.1893 19.8513 12.3047 20.0237 12.3835 20.2135C12.4623 20.4033 12.5028 20.6068 12.5028 20.8124C12.5028 21.0179 12.4623 21.2214 12.3835 21.4112C12.3047 21.601 12.1893 21.7735 12.0438 21.9186L7.35627 26.6061C7.21113 26.7516 7.0387 26.8671 6.84888 26.9458C6.65905 27.0246 6.45554 27.0652 6.25002 27.0652C6.0445 27.0652 5.84099 27.0246 5.65117 26.9458C5.46134 26.8671 5.28891 26.7516 5.14377 26.6061L3.58127 25.0436C3.28788 24.7502 3.12305 24.3523 3.12305 23.9374C3.12305 23.5224 3.28788 23.1245 3.58127 22.8311C3.87467 22.5377 4.2726 22.3729 4.68752 22.3729C5.10245 22.3729 5.50037 22.5377 5.79377 22.8311L6.25002 23.2905L9.83127 19.7061C9.97641 19.5606 10.1488 19.4452 10.3387 19.3664C10.5285 19.2876 10.732 19.2471 10.9375 19.2471C11.143 19.2471 11.3465 19.2876 11.5364 19.3664C11.7262 19.4452 11.8986 19.5606 12.0438 19.7061ZM12.0438 32.2061C12.1893 32.3513 12.3047 32.5237 12.3835 32.7135C12.4623 32.9033 12.5028 33.1068 12.5028 33.3124C12.5028 33.5179 12.4623 33.7214 12.3835 33.9112C12.3047 34.101 12.1893 34.2735 12.0438 34.4186L7.35627 39.1061C7.21113 39.2516 7.0387 39.3671 6.84888 39.4458C6.65905 39.5246 6.45554 39.5652 6.25002 39.5652C6.0445 39.5652 5.84099 39.5246 5.65117 39.4458C5.46134 39.3671 5.28891 39.2516 5.14377 39.1061L3.58127 37.5436C3.28788 37.2502 3.12305 36.8523 3.12305 36.4374C3.12305 36.0224 3.28788 35.6245 3.58127 35.3311C3.87467 35.0377 4.2726 34.8729 4.68752 34.8729C5.10245 34.8729 5.50037 35.0377 5.79377 35.3311L6.25002 35.7905L9.83127 32.2061C9.97641 32.0606 10.1488 31.9452 10.3387 31.8664C10.5285 31.7876 10.732 31.7471 10.9375 31.7471C11.143 31.7471 11.3465 31.7876 11.5364 31.8664C11.7262 31.9452 11.8986 32.0606 12.0438 32.2061Z" fill="#2DDA93"/>
</svg>
