<svg width="180" height="180" viewBox="0 0 180 180" fill="none" xmlns="http://www.w3.org/2000/svg">
<path d="M40.2827 164.865C40.2827 166.241 41.3927 167.353 42.7671 167.353H99.8983C101.273 167.353 102.383 166.241 102.383 164.865V153.454L114.075 141.741C114.542 141.274 114.803 140.642 114.803 139.98V137.492H127.223C134.07 137.492 139.643 131.91 139.643 125.049V30.4894C139.643 23.6287 134.07 18.0469 127.223 18.0469H62.6383C55.7908 18.0469 50.2183 23.6287 50.2183 30.4894V106.601L41.0102 115.824C40.5433 116.291 40.2827 116.923 40.2827 117.585V164.865ZM127.223 132.516H75.0583V122.561H134.674V125.049C134.674 129.165 131.331 132.516 127.223 132.516ZM62.6383 23.0231H127.223C131.331 23.0231 134.674 26.3719 134.674 30.4894V32.9775H55.1871V30.4894C55.1871 26.3737 58.5302 23.0231 62.6383 23.0231ZM55.1871 37.9537H134.674V117.585H76.0877L86.149 107.503C88.609 105.039 89.9627 101.764 89.9627 98.28C89.9627 91.0875 84.1202 85.2337 76.9408 85.2337C73.4646 85.2337 70.1927 86.5912 67.7327 89.055L55.1871 101.623V37.9537ZM45.2496 118.614L71.2465 92.5725C72.7652 91.05 74.7902 90.2119 76.9408 90.2119C81.3827 90.2119 84.994 93.8306 84.994 98.28C84.994 100.434 84.1577 102.463 82.6371 103.986L70.819 115.824C70.3521 116.291 70.0896 116.923 70.0896 117.585V133.974L60.8815 143.197L64.3952 146.717L73.6033 137.492H109.834V138.951L98.1415 150.664C97.6746 151.129 97.414 151.761 97.414 152.423V162.377H45.2496V118.614Z" fill="white"/>
<path d="M114.803 55.3724H119.77V47.908C119.77 46.5318 118.66 45.4199 117.287 45.4199H109.834V50.3962H114.803V55.3724Z" fill="white"/>
<path d="M109.834 87.7242V92.7005H117.287C118.66 92.7005 119.77 91.5886 119.77 90.2123V82.7461H114.803V87.7242H109.834Z" fill="white"/>
<path d="M72.5738 50.3962H80.0269V45.4199H70.0894C68.7169 45.4199 67.6069 46.5318 67.6069 47.908V55.3724H72.5738V50.3962Z" fill="white"/>
<path d="M97.4136 45.4199H104.867V50.3962H97.4136V45.4199Z" fill="white"/>
<path d="M84.9937 45.4199H89.9624V55.3724H84.9937V45.4199Z" fill="white"/>
<path d="M104.867 55.3721V65.3264C104.867 66.7027 105.977 67.8146 107.349 67.8146H119.769V62.8383H109.834V55.3721H104.867Z" fill="white"/>
<path d="M119.769 72.793H104.867C103.492 72.793 102.382 73.9048 102.382 75.2811V82.7455H107.349V77.7692H119.769V72.793Z" fill="white"/>
<path d="M104.867 87.7234H97.4137V85.2334H92.4468V90.2115C92.4468 91.5878 93.5568 92.6996 94.9293 92.6996H104.867V87.7234Z" fill="white"/>
<path d="M94.9292 55.3721H99.8979V70.3027H94.9292V55.3721Z" fill="white"/>
<path d="M97.4136 75.2809H89.9624V70.3027H84.9937V77.769C84.9937 79.1452 86.1036 80.2571 87.478 80.2571H97.4136V75.2809Z" fill="white"/>
<path d="M77.5425 55.3721V62.8383C77.5425 64.2146 78.6525 65.3264 80.0269 65.3264H89.9625V60.3502H82.5094V55.3721H77.5425Z" fill="white"/>
<path d="M72.5738 65.3268H75.0582V60.3506H70.0894C68.7169 60.3506 67.6069 61.4625 67.6069 62.8387V70.3031H72.5738V65.3268Z" fill="white"/>
<path d="M77.5425 70.3027H82.5094V75.2809H77.5425V70.3027Z" fill="white"/>
<path d="M70.0894 82.7456H80.0269V77.7694H72.5738V75.2812H67.6069V80.2575C67.6069 81.6337 68.7169 82.7456 70.0894 82.7456Z" fill="white"/>
<path d="M106.622 100.894L103.11 104.413L110.561 111.88C111.047 112.363 111.682 112.607 112.318 112.607C112.954 112.607 113.589 112.363 114.075 111.88L128.979 96.9472L125.466 93.4297L112.318 106.602L106.622 100.894Z" fill="white"/>
<path d="M40.2827 100.166H45.2496V105.142H40.2827V100.166Z" fill="white"/>
<path d="M40.2827 90.2119H45.2496V95.1882H40.2827V90.2119Z" fill="white"/>
<path d="M40.2827 80.2578H45.2496V85.2341H40.2827V80.2578Z" fill="white"/>
</svg>
