<svg width="52" height="55" viewBox="0 0 52 55" fill="none" xmlns="http://www.w3.org/2000/svg">
<g filter="url(#filter0_d_1019_9667)">
<path fill-rule="evenodd" clip-rule="evenodd" d="M16.4262 36.661C23.5564 35.6193 28.4658 35.7089 35.6054 36.6975C36.1224 36.7724 36.5949 37.0319 36.9355 37.4281C37.2761 37.8242 37.4619 38.3302 37.4585 38.8527C37.4585 39.3527 37.2866 39.8381 36.9762 40.2172C36.4352 40.8783 35.8809 41.5285 35.3137 42.1672H38.0647C38.2377 41.961 38.4116 41.7506 38.5877 41.537C39.2055 40.7793 39.5426 39.8314 39.5418 38.8537C39.5418 36.7443 38.0022 34.9266 35.8908 34.635C28.5825 33.6235 23.4741 33.5266 16.1252 34.6006C13.9918 34.912 12.4585 36.7579 12.4585 38.8818C12.4585 39.8245 12.7658 40.7568 13.3481 41.512C13.52 41.735 13.6897 41.9537 13.8585 42.1683H16.5429C16.0152 41.5365 15.5005 40.894 14.9991 40.2412C14.7012 39.8504 14.5404 39.3722 14.5418 38.8808C14.5418 37.7589 15.3481 36.8183 16.4262 36.661Z" fill="#2DDA93" stroke="#2DDA93"/>
<path fill-rule="evenodd" clip-rule="evenodd" d="M26.0001 26.5423C26.8208 26.5423 27.6336 26.3807 28.3919 26.0666C29.1501 25.7525 29.8391 25.2921 30.4195 24.7117C30.9999 24.1314 31.4602 23.4424 31.7743 22.6841C32.0884 21.9258 32.2501 21.1131 32.2501 20.2923C32.2501 19.4716 32.0884 18.6588 31.7743 17.9005C31.4602 17.1423 30.9999 16.4533 30.4195 15.8729C29.8391 15.2925 29.1501 14.8322 28.3919 14.5181C27.6336 14.204 26.8208 14.0423 26.0001 14.0423C24.3425 14.0423 22.7528 14.7008 21.5807 15.8729C20.4086 17.045 19.7501 18.6347 19.7501 20.2923C19.7501 21.9499 20.4086 23.5396 21.5807 24.7117C22.7528 25.8838 24.3425 26.5423 26.0001 26.5423ZM26.0001 28.6257C28.2102 28.6257 30.3298 27.7477 31.8926 26.1849C33.4554 24.6221 34.3334 22.5025 34.3334 20.2923C34.3334 18.0822 33.4554 15.9626 31.8926 14.3998C30.3298 12.837 28.2102 11.959 26.0001 11.959C23.7899 11.959 21.6703 12.837 20.1075 14.3998C18.5447 15.9626 17.6667 18.0822 17.6667 20.2923C17.6667 22.5025 18.5447 24.6221 20.1075 26.1849C21.6703 27.7477 23.7899 28.6257 26.0001 28.6257Z" fill="#2DDA93" stroke="#2DDA93"/>
<path fill-rule="evenodd" clip-rule="evenodd" d="M26.0001 44.2503C36.3553 44.2503 44.7501 35.8555 44.7501 25.5003C44.7501 15.1451 36.3553 6.75033 26.0001 6.75033C15.6449 6.75033 7.25008 15.1451 7.25008 25.5003C7.25008 35.8555 15.6449 44.2503 26.0001 44.2503ZM26.0001 46.3337C37.5063 46.3337 46.8334 37.0066 46.8334 25.5003C46.8334 13.9941 37.5063 4.66699 26.0001 4.66699C14.4938 4.66699 5.16675 13.9941 5.16675 25.5003C5.16675 37.0066 14.4938 46.3337 26.0001 46.3337Z" fill="#2DDA93" stroke="#2DDA93"/>
</g>
<defs>
<filter id="filter0_d_1019_9667" x="-3" y="0.5" width="58" height="58" filterUnits="userSpaceOnUse" color-interpolation-filters="sRGB">
<feFlood flood-opacity="0" result="BackgroundImageFix"/>
<feColorMatrix in="SourceAlpha" type="matrix" values="0 0 0 0 0 0 0 0 0 0 0 0 0 0 0 0 0 0 127 0" result="hardAlpha"/>
<feOffset dy="4"/>
<feGaussianBlur stdDeviation="2"/>
<feComposite in2="hardAlpha" operator="out"/>
<feColorMatrix type="matrix" values="0 0 0 0 0 0 0 0 0 0 0 0 0 0 0 0 0 0 0.25 0"/>
<feBlend mode="normal" in2="BackgroundImageFix" result="effect1_dropShadow_1019_9667"/>
<feBlend mode="normal" in="SourceGraphic" in2="effect1_dropShadow_1019_9667" result="shape"/>
</filter>
</defs>
</svg>
