<svg width="50" height="51" viewBox="0 0 50 51" fill="none" xmlns="http://www.w3.org/2000/svg">
<path d="M17.5781 9.875V3.625C17.5781 3.3142 17.7016 3.01613 17.9214 2.79636C18.1411 2.57659 18.4392 2.45313 18.75 2.45312C19.0608 2.45312 19.3589 2.57659 19.5786 2.79636C19.7984 3.01613 19.9219 3.3142 19.9219 3.625V9.875C19.9219 10.1858 19.7984 10.4839 19.5786 10.7036C19.3589 10.9234 19.0608 11.0469 18.75 11.0469C18.4392 11.0469 18.1411 10.9234 17.9214 10.7036C17.7016 10.4839 17.5781 10.1858 17.5781 9.875ZM25 11.0469C25.3108 11.0469 25.6089 10.9234 25.8286 10.7036C26.0484 10.4839 26.1719 10.1858 26.1719 9.875V3.625C26.1719 3.3142 26.0484 3.01613 25.8286 2.79636C25.6089 2.57659 25.3108 2.45312 25 2.45312C24.6892 2.45312 24.3911 2.57659 24.1714 2.79636C23.9516 3.01613 23.8281 3.3142 23.8281 3.625V9.875C23.8281 10.1858 23.9516 10.4839 24.1714 10.7036C24.3911 10.9234 24.6892 11.0469 25 11.0469ZM31.25 11.0469C31.5608 11.0469 31.8589 10.9234 32.0786 10.7036C32.2984 10.4839 32.4219 10.1858 32.4219 9.875V3.625C32.4219 3.3142 32.2984 3.01613 32.0786 2.79636C31.8589 2.57659 31.5608 2.45312 31.25 2.45312C30.9392 2.45312 30.6411 2.57659 30.4214 2.79636C30.2016 3.01613 30.0781 3.3142 30.0781 3.625V9.875C30.0781 10.1858 30.2016 10.4839 30.4214 10.7036C30.6411 10.9234 30.9392 11.0469 31.25 11.0469ZM49.1406 20.1875L43.3594 24.5234V36.4375C43.3542 37.9899 42.7353 39.4773 41.6375 40.575C40.5398 41.6727 39.0524 42.2917 37.5 42.2969H12.5C10.9476 42.2917 9.46022 41.6727 8.36249 40.575C7.26476 39.4773 6.64578 37.9899 6.64063 36.4375V24.5234L0.85938 20.1875C0.610739 20.001 0.446362 19.7234 0.402408 19.4157C0.358454 19.1081 0.438524 18.7955 0.625005 18.5469C0.811485 18.2982 1.0891 18.1339 1.39678 18.0899C1.70445 18.0459 2.01699 18.126 2.26563 18.3125L6.64063 21.5938V17.6875C6.64063 16.9623 6.92871 16.2668 7.44151 15.754C7.9543 15.2412 8.6498 14.9531 9.375 14.9531H40.625C41.3502 14.9531 42.0457 15.2412 42.5585 15.754C43.0713 16.2668 43.3594 16.9623 43.3594 17.6875V21.5938L47.7344 18.3125C47.983 18.126 48.2956 18.0459 48.6032 18.0899C48.9109 18.1339 49.1885 18.2982 49.375 18.5469C49.5615 18.7955 49.6416 19.1081 49.5976 19.4157C49.5536 19.7234 49.3893 20.001 49.1406 20.1875ZM41.0156 17.6875C41.0156 17.5839 40.9745 17.4845 40.9012 17.4113C40.828 17.338 40.7286 17.2969 40.625 17.2969H9.375C9.2714 17.2969 9.17205 17.338 9.09879 17.4113C9.02553 17.4845 8.98438 17.5839 8.98438 17.6875V36.4375C8.98951 37.3683 9.36155 38.2596 10.0197 38.9178C10.6779 39.576 11.5692 39.948 12.5 39.9531H37.5C38.4308 39.948 39.3221 39.576 39.9803 38.9178C40.6385 38.2596 41.0105 37.3683 41.0156 36.4375V17.6875Z" fill="#2DDA93"/>
</svg>
