<svg width="50" height="53" viewBox="0 0 50 53" fill="none" xmlns="http://www.w3.org/2000/svg">
<g filter="url(#filter0_d_1019_9634)">
<path d="M6.25 13.5208C6.25 11.7251 6.96335 10.0029 8.23313 8.73313C9.50291 7.46335 11.2251 6.75 13.0208 6.75H18.5865C19.0009 6.75 19.3983 6.91462 19.6913 7.20765C19.9843 7.50067 20.149 7.8981 20.149 8.3125C20.149 8.7269 19.9843 9.12433 19.6913 9.41735C19.3983 9.71038 19.0009 9.875 18.5865 9.875H13.0208C12.0539 9.875 11.1266 10.2591 10.4428 10.9428C9.75911 11.6266 9.375 12.5539 9.375 13.5208V19.0865C9.375 19.5009 9.21038 19.8983 8.91735 20.1913C8.62433 20.4843 8.2269 20.649 7.8125 20.649C7.3981 20.649 7.00067 20.4843 6.70765 20.1913C6.41462 19.8983 6.25 19.5009 6.25 19.0865V13.5208ZM29.851 8.3125C29.851 7.8981 30.0157 7.50067 30.3087 7.20765C30.6017 6.91462 30.9991 6.75 31.4135 6.75H36.9792C38.7749 6.75 40.4971 7.46335 41.7669 8.73313C43.0366 10.0029 43.75 11.7251 43.75 13.5208V19.0865C43.75 19.5009 43.5854 19.8983 43.2924 20.1913C42.9993 20.4843 42.6019 20.649 42.1875 20.649C41.7731 20.649 41.3757 20.4843 41.0826 20.1913C40.7896 19.8983 40.625 19.5009 40.625 19.0865V13.5208C40.625 12.5539 40.2409 11.6266 39.5572 10.9428C38.8734 10.2591 37.9461 9.875 36.9792 9.875H31.4135C30.9991 9.875 30.6017 9.71038 30.3087 9.41735C30.0157 9.12433 29.851 8.7269 29.851 8.3125ZM7.8125 30.351C8.2269 30.351 8.62433 30.5157 8.91735 30.8087C9.21038 31.1017 9.375 31.4991 9.375 31.9135V37.4792C9.375 38.4461 9.75911 39.3734 10.4428 40.0572C11.1266 40.7409 12.0539 41.125 13.0208 41.125H18.5865C19.0009 41.125 19.3983 41.2896 19.6913 41.5826C19.9843 41.8757 20.149 42.2731 20.149 42.6875C20.149 43.1019 19.9843 43.4993 19.6913 43.7924C19.3983 44.0854 19.0009 44.25 18.5865 44.25H13.0208C11.2251 44.25 9.50291 43.5366 8.23313 42.2669C6.96335 40.9971 6.25 39.2749 6.25 37.4792V31.9135C6.25 31.4991 6.41462 31.1017 6.70765 30.8087C7.00067 30.5157 7.3981 30.351 7.8125 30.351ZM42.1875 30.351C42.6019 30.351 42.9993 30.5157 43.2924 30.8087C43.5854 31.1017 43.75 31.4991 43.75 31.9135V37.4792C43.75 39.2749 43.0366 40.9971 41.7669 42.2669C40.4971 43.5366 38.7749 44.25 36.9792 44.25H31.4135C30.9991 44.25 30.6017 44.0854 30.3087 43.7924C30.0157 43.4993 29.851 43.1019 29.851 42.6875C29.851 42.2731 30.0157 41.8757 30.3087 41.5826C30.6017 41.2896 30.9991 41.125 31.4135 41.125H36.9792C37.9461 41.125 38.8734 40.7409 39.5572 40.0572C40.2409 39.3734 40.625 38.4461 40.625 37.4792V31.9135C40.625 31.4991 40.7896 31.1017 41.0826 30.8087C41.3757 30.5157 41.7731 30.351 42.1875 30.351ZM28.125 26.0208C28.125 25.192 27.7958 24.3972 27.2097 23.8111C26.6237 23.2251 25.8288 22.8958 25 22.8958C24.1712 22.8958 23.3763 23.2251 22.7903 23.8111C22.2042 24.3972 21.875 25.192 21.875 26.0208C21.875 26.8496 22.2042 27.6445 22.7903 28.2305C23.3763 28.8166 24.1712 29.1458 25 29.1458C25.8288 29.1458 26.6237 28.8166 27.2097 28.2305C27.7958 27.6445 28.125 26.8496 28.125 26.0208ZM29.026 16.7635C28.8191 16.4115 28.5238 16.1196 28.1694 15.9167C27.8149 15.7139 27.4136 15.6073 27.0052 15.6073H23.0437C22.6431 15.6074 22.2492 15.7102 21.8996 15.9059C21.55 16.1015 21.2564 16.3836 21.0469 16.725L20.1354 18.2083H17.9688C17.0709 18.2083 16.2098 18.565 15.5749 19.1999C14.94 19.8348 14.5833 20.6959 14.5833 21.5937V31.4896C14.5833 32.3875 14.94 33.2485 15.5749 33.8834C16.2098 34.5183 17.0709 34.875 17.9688 34.875H32.0312C32.9291 34.875 33.7902 34.5183 34.4251 33.8834C35.06 33.2485 35.4167 32.3875 35.4167 31.4896V21.5937C35.4167 20.6959 35.06 19.8348 34.4251 19.1999C33.7902 18.565 32.9291 18.2083 32.0312 18.2083H29.875L29.026 16.7635ZM20.3125 26.0208C20.3125 24.7776 20.8064 23.5853 21.6854 22.7063C22.5645 21.8272 23.7568 21.3333 25 21.3333C26.2432 21.3333 27.4355 21.8272 28.3146 22.7063C29.1936 23.5853 29.6875 24.7776 29.6875 26.0208C29.6875 27.264 29.1936 28.4563 28.3146 29.3354C27.4355 30.2145 26.2432 30.7083 25 30.7083C23.7568 30.7083 22.5645 30.2145 21.6854 29.3354C20.8064 28.4563 20.3125 27.264 20.3125 26.0208Z" fill="#2DDA93"/>
</g>
<defs>
<filter id="filter0_d_1019_9634" x="-4" y="0.5" width="58" height="58" filterUnits="userSpaceOnUse" color-interpolation-filters="sRGB">
<feFlood flood-opacity="0" result="BackgroundImageFix"/>
<feColorMatrix in="SourceAlpha" type="matrix" values="0 0 0 0 0 0 0 0 0 0 0 0 0 0 0 0 0 0 127 0" result="hardAlpha"/>
<feOffset dy="4"/>
<feGaussianBlur stdDeviation="2"/>
<feComposite in2="hardAlpha" operator="out"/>
<feColorMatrix type="matrix" values="0 0 0 0 0 0 0 0 0 0 0 0 0 0 0 0 0 0 0.25 0"/>
<feBlend mode="normal" in2="BackgroundImageFix" result="effect1_dropShadow_1019_9634"/>
<feBlend mode="normal" in="SourceGraphic" in2="effect1_dropShadow_1019_9634" result="shape"/>
</filter>
</defs>
</svg>
