<?xml version="1.0" encoding="UTF-8"?><svg xmlns="http://www.w3.org/2000/svg" xmlns:xlink="http://www.w3.org/1999/xlink" contentScriptType="text/ecmascript" width="375" zoomAndPan="magnify" contentStyleType="text/css" viewBox="0 0 375 374.999991" height="374.999991" preserveAspectRatio="xMidYMid meet" version="1.0"><defs><clipPath id="clip-0"><path d="M 83.921875 37.5 L 290.921875 37.5 L 290.921875 348.75 L 83.921875 348.75 Z M 83.921875 37.5 " clip-rule="nonzero"/></clipPath><clipPath id="clip-1"><path d="M 83.921875 208 L 95 208 L 95 220 L 83.921875 220 Z M 83.921875 208 " clip-rule="nonzero"/></clipPath><clipPath id="clip-2"><path d="M 83.921875 187 L 95 187 L 95 199 L 83.921875 199 Z M 83.921875 187 " clip-rule="nonzero"/></clipPath><clipPath id="clip-3"><path d="M 83.921875 167 L 95 167 L 95 178 L 83.921875 178 Z M 83.921875 167 " clip-rule="nonzero"/></clipPath></defs><g clip-path="url(#clip-0)"><path fill="rgb(0%, 0%, 0%)" d="M 83.921875 343.46875 C 83.921875 346.335938 86.234375 348.652344 89.097656 348.652344 L 208.121094 348.652344 C 210.984375 348.652344 213.296875 346.335938 213.296875 343.46875 L 213.296875 319.695312 L 237.65625 295.292969 C 238.628906 294.320312 239.171875 293.003906 239.171875 291.625 L 239.171875 286.441406 L 265.046875 286.441406 C 279.3125 286.441406 290.921875 274.8125 290.921875 260.519531 L 290.921875 63.519531 C 290.921875 49.226562 279.3125 37.597656 265.046875 37.597656 L 130.496094 37.597656 C 116.230469 37.597656 104.621094 49.226562 104.621094 63.519531 L 104.621094 222.085938 L 85.4375 241.300781 C 84.464844 242.273438 83.921875 243.589844 83.921875 244.96875 Z M 265.046875 276.074219 L 156.371094 276.074219 L 156.371094 255.335938 L 280.570312 255.335938 L 280.570312 260.519531 C 280.570312 269.09375 273.605469 276.074219 265.046875 276.074219 Z M 130.496094 47.964844 L 265.046875 47.964844 C 273.605469 47.964844 280.570312 54.941406 280.570312 63.519531 L 280.570312 68.703125 L 114.972656 68.703125 L 114.972656 63.519531 C 114.972656 54.945312 121.9375 47.964844 130.496094 47.964844 Z M 114.972656 79.070312 L 280.570312 79.070312 L 280.570312 244.96875 L 158.515625 244.96875 L 179.476562 223.964844 C 184.601562 218.832031 187.421875 212.007812 187.421875 204.75 C 187.421875 189.765625 175.25 177.570312 160.292969 177.570312 C 153.050781 177.570312 146.234375 180.398438 141.109375 185.53125 L 114.972656 211.714844 Z M 94.269531 247.113281 L 148.429688 192.859375 C 151.59375 189.6875 155.8125 187.941406 160.292969 187.941406 C 169.546875 187.941406 177.070312 195.480469 177.070312 204.75 C 177.070312 209.238281 175.328125 213.464844 172.160156 216.636719 L 147.539062 241.300781 C 146.566406 242.273438 146.019531 243.589844 146.019531 244.96875 L 146.019531 279.113281 L 126.835938 298.328125 L 134.15625 305.660156 L 153.339844 286.441406 L 228.820312 286.441406 L 228.820312 289.480469 L 204.460938 313.882812 C 203.488281 314.851562 202.945312 316.167969 202.945312 317.546875 L 202.945312 338.285156 L 94.269531 338.285156 Z M 94.269531 247.113281 " fill-opacity="1" fill-rule="nonzero"/></g><path fill="rgb(0%, 0%, 0%)" d="M 239.171875 115.359375 L 249.519531 115.359375 L 249.519531 99.808594 C 249.519531 96.941406 247.207031 94.625 244.347656 94.625 L 228.820312 94.625 L 228.820312 104.992188 L 239.171875 104.992188 Z M 239.171875 115.359375 " fill-opacity="1" fill-rule="nonzero"/><path fill="rgb(0%, 0%, 0%)" d="M 228.820312 182.757812 L 228.820312 193.125 L 244.347656 193.125 C 247.207031 193.125 249.519531 190.808594 249.519531 187.941406 L 249.519531 172.386719 L 239.171875 172.386719 L 239.171875 182.757812 Z M 228.820312 182.757812 " fill-opacity="1" fill-rule="nonzero"/><path fill="rgb(0%, 0%, 0%)" d="M 151.195312 104.992188 L 166.722656 104.992188 L 166.722656 94.625 L 146.019531 94.625 C 143.160156 94.625 140.847656 96.941406 140.847656 99.808594 L 140.847656 115.359375 L 151.195312 115.359375 Z M 151.195312 104.992188 " fill-opacity="1" fill-rule="nonzero"/><path fill="rgb(0%, 0%, 0%)" d="M 202.945312 94.625 L 218.472656 94.625 L 218.472656 104.992188 L 202.945312 104.992188 Z M 202.945312 94.625 " fill-opacity="1" fill-rule="nonzero"/><path fill="rgb(0%, 0%, 0%)" d="M 177.070312 94.625 L 187.421875 94.625 L 187.421875 115.359375 L 177.070312 115.359375 Z M 177.070312 94.625 " fill-opacity="1" fill-rule="nonzero"/><path fill="rgb(0%, 0%, 0%)" d="M 218.472656 115.359375 L 218.472656 136.097656 C 218.472656 138.964844 220.785156 141.28125 223.644531 141.28125 L 249.519531 141.28125 L 249.519531 130.914062 L 228.820312 130.914062 L 228.820312 115.359375 Z M 218.472656 115.359375 " fill-opacity="1" fill-rule="nonzero"/><path fill="rgb(0%, 0%, 0%)" d="M 249.519531 151.652344 L 218.472656 151.652344 C 215.609375 151.652344 213.296875 153.96875 213.296875 156.835938 L 213.296875 172.386719 L 223.644531 172.386719 L 223.644531 162.019531 L 249.519531 162.019531 Z M 249.519531 151.652344 " fill-opacity="1" fill-rule="nonzero"/><path fill="rgb(0%, 0%, 0%)" d="M 218.472656 182.757812 L 202.945312 182.757812 L 202.945312 177.570312 L 192.597656 177.570312 L 192.597656 187.941406 C 192.597656 190.808594 194.910156 193.125 197.769531 193.125 L 218.472656 193.125 Z M 218.472656 182.757812 " fill-opacity="1" fill-rule="nonzero"/><path fill="rgb(0%, 0%, 0%)" d="M 197.769531 115.359375 L 208.121094 115.359375 L 208.121094 146.464844 L 197.769531 146.464844 Z M 197.769531 115.359375 " fill-opacity="1" fill-rule="nonzero"/><path fill="rgb(0%, 0%, 0%)" d="M 202.945312 156.835938 L 187.421875 156.835938 L 187.421875 146.464844 L 177.070312 146.464844 L 177.070312 162.019531 C 177.070312 164.886719 179.382812 167.203125 182.246094 167.203125 L 202.945312 167.203125 Z M 202.945312 156.835938 " fill-opacity="1" fill-rule="nonzero"/><path fill="rgb(0%, 0%, 0%)" d="M 161.546875 115.359375 L 161.546875 130.914062 C 161.546875 133.78125 163.859375 136.097656 166.722656 136.097656 L 187.421875 136.097656 L 187.421875 125.730469 L 171.894531 125.730469 L 171.894531 115.359375 Z M 161.546875 115.359375 " fill-opacity="1" fill-rule="nonzero"/><path fill="rgb(0%, 0%, 0%)" d="M 151.195312 136.097656 L 156.371094 136.097656 L 156.371094 125.730469 L 146.019531 125.730469 C 143.160156 125.730469 140.847656 128.046875 140.847656 130.914062 L 140.847656 146.464844 L 151.195312 146.464844 Z M 151.195312 136.097656 " fill-opacity="1" fill-rule="nonzero"/><path fill="rgb(0%, 0%, 0%)" d="M 161.546875 146.464844 L 171.894531 146.464844 L 171.894531 156.835938 L 161.546875 156.835938 Z M 161.546875 146.464844 " fill-opacity="1" fill-rule="nonzero"/><path fill="rgb(0%, 0%, 0%)" d="M 146.019531 172.386719 L 166.722656 172.386719 L 166.722656 162.019531 L 151.195312 162.019531 L 151.195312 156.835938 L 140.847656 156.835938 L 140.847656 167.203125 C 140.847656 170.070312 143.160156 172.386719 146.019531 172.386719 Z M 146.019531 172.386719 " fill-opacity="1" fill-rule="nonzero"/><path fill="rgb(0%, 0%, 0%)" d="M 222.128906 210.195312 L 214.8125 217.527344 L 230.335938 233.082031 C 231.347656 234.089844 232.671875 234.597656 233.996094 234.597656 C 235.320312 234.597656 236.644531 234.089844 237.65625 233.082031 L 268.707031 201.972656 L 261.386719 194.644531 L 233.996094 222.085938 Z M 222.128906 210.195312 " fill-opacity="1" fill-rule="nonzero"/><g clip-path="url(#clip-1)"><path fill="rgb(0%, 0%, 0%)" d="M 83.921875 208.679688 L 94.269531 208.679688 L 94.269531 219.046875 L 83.921875 219.046875 Z M 83.921875 208.679688 " fill-opacity="1" fill-rule="nonzero"/></g><g clip-path="url(#clip-2)"><path fill="rgb(0%, 0%, 0%)" d="M 83.921875 187.941406 L 94.269531 187.941406 L 94.269531 198.308594 L 83.921875 198.308594 Z M 83.921875 187.941406 " fill-opacity="1" fill-rule="nonzero"/></g><g clip-path="url(#clip-3)"><path fill="rgb(0%, 0%, 0%)" d="M 83.921875 167.203125 L 94.269531 167.203125 L 94.269531 177.570312 L 83.921875 177.570312 Z M 83.921875 167.203125 " fill-opacity="1" fill-rule="nonzero"/></g></svg>